<svg enable-background="new 0 0 310.2 1187.6" viewBox="0 0 310.2 1187.6" xmlns="http://www.w3.org/2000/svg" xmlns:xlink="http://www.w3.org/1999/xlink"><linearGradient id="a" gradientUnits="userSpaceOnUse" x1="155.085" x2="155.085" y1="598" y2="1116.0039"><stop offset="0" stop-color="#2d3438"/><stop offset="1" stop-color="#1a1a1a" stop-opacity="0"/></linearGradient><linearGradient id="b"><stop offset="0" stop-color="#2d3438"/><stop offset="1" stop-color="#1a1a1a"/></linearGradient><linearGradient id="c" gradientTransform="matrix(1 0 0 -1 0 1188)" gradientUnits="userSpaceOnUse" x1="38.9495" x2="271.2205" xlink:href="#b" y1="740.4103" y2="606.3098"/><linearGradient id="d" gradientUnits="userSpaceOnUse" x1="155.085" x2="155.085" y1="546" y2="1078.1842"><stop offset="0" stop-color="#1b1b1b" stop-opacity=".7382"/><stop offset="1" stop-color="#2d3438" stop-opacity="0"/></linearGradient><linearGradient id="e"><stop offset="0" stop-color="#2e3d4a"/><stop offset="1" stop-color="#232329"/></linearGradient><linearGradient id="f" gradientTransform="matrix(-1 0 0 -1 4659.8398 1188)" gradientUnits="userSpaceOnUse" x1="4350.0698" x2="4659.4399" xlink:href="#e" y1="780.84" y2="780.84"/><linearGradient id="g" gradientTransform="matrix(-1 0 0 -1 4659.8398 1188)" gradientUnits="userSpaceOnUse" x1="4504.7549" x2="4504.7549" xlink:href="#e" y1="711.17" y2="889.78"/><linearGradient id="h"><stop offset="0" stop-color="#67eaec"/><stop offset="1" stop-color="#1bcce5"/></linearGradient><linearGradient id="i" gradientTransform="matrix(1 0 0 -1 0 1634)" gradientUnits="userSpaceOnUse" x1=".88" x2="310.28" xlink:href="#h" y1="1365.25" y2="1365.25"/><linearGradient id="j" gradientTransform="matrix(1 0 0 -1 0 1634)" gradientUnits="userSpaceOnUse" x1="310.28" x2=".88" xlink:href="#h" y1="1389.15" y2="1389.15"/><linearGradient id="k" gradientTransform="matrix(1 0 0 -1 0 1188)" gradientUnits="userSpaceOnUse" x1=".3" x2="133.32" xlink:href="#b" y1="1065.525" y2="1065.525"/><linearGradient id="l"><stop offset="0" stop-color="#5c8ee4"/><stop offset="1" stop-color="#67eaec"/></linearGradient><linearGradient id="m" gradientTransform="matrix(1 0 0 -1 0 1188)" gradientUnits="userSpaceOnUse" x1=".05" x2="133.57" xlink:href="#l" y1="1065.525" y2="1065.525"/><linearGradient id="n" gradientTransform="matrix(1 0 0 -1 0 1188)" gradientUnits="userSpaceOnUse" x1=".3" x2="133.32" xlink:href="#b" y1="1075.405" y2="1075.405"/><linearGradient id="o" gradientTransform="matrix(1 0 0 -1 0 1188)" gradientUnits="userSpaceOnUse" x1=".05" x2="133.57" xlink:href="#l" y1="1075.405" y2="1075.405"/><linearGradient id="p" gradientTransform="matrix(1 0 0 -1 0 1188)" gradientUnits="userSpaceOnUse" x1="47.32" x2="59.24" xlink:href="#l" y1="1067.6002" y2="1067.6002"/><linearGradient id="q" gradientTransform="matrix(1 0 0 -1 0 1188)" gradientUnits="userSpaceOnUse" x1="58.02" x2="70.27" xlink:href="#l" y1="1072.115" y2="1072.115"/><linearGradient id="r" gradientTransform="matrix(1 0 0 -1 0 1188)" gradientUnits="userSpaceOnUse" x1="65.99" x2="75.83" xlink:href="#l" y1="1075.9363" y2="1075.9363"/><linearGradient id="s" gradientTransform="matrix(1 0 0 -1 0 1188)" gradientUnits="userSpaceOnUse" x1="73.47" x2="83.3189" xlink:href="#l" y1="1080.2612" y2="1080.2612"/><linearGradient id="t" gradientTransform="matrix(1 0 0 -1 0 1188)" gradientUnits="userSpaceOnUse" x1="66.77" x2="67.27" xlink:href="#l" y1="1027.13" y2="1027.13"/><linearGradient id="u" gradientTransform="matrix(1 0 0 -1 0 1188)" gradientUnits="userSpaceOnUse" x1=".3" x2="133.32" xlink:href="#l" y1="1065.525" y2="1065.525"/><linearGradient id="v" gradientTransform="matrix(1 0 0 -1 0 1188)" gradientUnits="userSpaceOnUse" x1="66.48" x2="67.13" xlink:href="#b" y1="943.385" y2="943.385"/><linearGradient id="w" gradientTransform="matrix(1 0 0 -1 0 1188)" gradientUnits="userSpaceOnUse" x1="66.48" x2="67.13" xlink:href="#l" y1="1000.115" y2="1000.115"/><linearGradient id="x" gradientTransform="matrix(1 0 0 -1 0 1188)" gradientUnits="userSpaceOnUse" x1="132.62" x2="133.27" xlink:href="#l" y1="1037.61" y2="1037.61"/><linearGradient id="y" gradientTransform="matrix(1 0 0 -1 0 1188)" gradientUnits="userSpaceOnUse" x1=".05" x2=".55" xlink:href="#l" y1="998.545" y2="998.545"/><linearGradient id="z" gradientTransform="matrix(1 0 0 -1 0 1188)" gradientUnits="userSpaceOnUse" x1="132.62" x2="133.27" xlink:href="#b" y1="981.5" y2="981.5"/><linearGradient id="A" gradientTransform="matrix(1 0 0 -1 0 1188)" gradientUnits="userSpaceOnUse" x1="176.85" x2="309.87" xlink:href="#b" y1="1139.47" y2="1139.47"/><linearGradient id="B" gradientTransform="matrix(1 0 0 -1 0 1188)" gradientUnits="userSpaceOnUse" x1="176.6" x2="310.12" xlink:href="#l" y1="1139.47" y2="1139.47"/><linearGradient id="C" gradientTransform="matrix(1 0 0 -1 0 1188)" gradientUnits="userSpaceOnUse" x1="176.85" x2="309.87" xlink:href="#b" y1="1149.35" y2="1149.35"/><linearGradient id="D" gradientTransform="matrix(1 0 0 -1 0 1188)" gradientUnits="userSpaceOnUse" x1="176.6" x2="310.12" xlink:href="#l" y1="1149.35" y2="1149.35"/><linearGradient id="E" gradientTransform="matrix(1 0 0 -1 0 1188)" gradientUnits="userSpaceOnUse" x1="223.87" x2="235.79" xlink:href="#l" y1="1141.5503" y2="1141.5503"/><linearGradient id="F" gradientTransform="matrix(1 0 0 -1 0 1188)" gradientUnits="userSpaceOnUse" x1="234.56" x2="246.81" xlink:href="#l" y1="1146.0551" y2="1146.0551"/><linearGradient id="G" gradientTransform="matrix(1 0 0 -1 0 1188)" gradientUnits="userSpaceOnUse" x1="242.55" x2="252.3889" xlink:href="#l" y1="1149.8812" y2="1149.8812"/><linearGradient id="H" gradientTransform="matrix(1 0 0 -1 0 1188)" gradientUnits="userSpaceOnUse" x1="250.03" x2="259.87" xlink:href="#l" y1="1154.2062" y2="1154.2062"/><linearGradient id="I" gradientTransform="matrix(1 0 0 -1 0 1188)" gradientUnits="userSpaceOnUse" x1="243.32" x2="243.82" xlink:href="#l" y1="1101.075" y2="1101.075"/><linearGradient id="J" gradientTransform="matrix(1 0 0 -1 0 1188)" gradientUnits="userSpaceOnUse" x1="176.85" x2="309.87" xlink:href="#l" y1="1139.47" y2="1139.47"/><linearGradient id="K" gradientTransform="matrix(1 0 0 -1 0 1188)" gradientUnits="userSpaceOnUse" x1="309.62" x2="310.12" xlink:href="#l" y1="1037.235" y2="1037.235"/><linearGradient id="L" gradientTransform="matrix(1 0 0 -1 0 1188)" gradientUnits="userSpaceOnUse" x1="243.49" x2="243.99" xlink:href="#l" y1="1036.96" y2="1036.96"/><linearGradient id="M" gradientTransform="matrix(1 0 0 -1 0 1188)" gradientUnits="userSpaceOnUse" x1="176.6" x2="177.1" xlink:href="#l" y1="1073.0551" y2="1073.0551"/><linearGradient id="N" gradientTransform="matrix(1 0 0 -1 0 1188)" gradientUnits="userSpaceOnUse" x1="243.49" x2="243.99" xlink:href="#b" y1="942.015" y2="942.015"/><linearGradient id="O" gradientTransform="matrix(1 0 0 -1 0 1188)" gradientUnits="userSpaceOnUse" x1="176.6" x2="177.1" xlink:href="#b" y1="981.5" y2="981.5"/><path d="m309.8 514.9-155.2-89.6-154.2 89.1v583.6l155.2 89.6 154.2-89z" fill="url(#a)"/><path d="m.3 514.1v583.7" fill="none"/><path d="m155.6 603.7v583.7" fill="none"/><path d="m309.9 515.1v583.7" fill="none"/><path d="m155.6 604-155.2-89.6 154.2-89.1 155.2 89.6z" fill="url(#c)"/><path d="m309.8 514.9-155.2-89.6-154.2 89.1v583.6l155.2 89.6 154.2-89z" fill="url(#d)" opacity=".35"/><path d="m.4 387.8 155.2-89.6 154.2 89v39.3l-155.2 89.6-154.2-89z" fill="url(#f)" stroke="#000" stroke-linecap="round" stroke-linejoin="round" stroke-width=".25"/><path d="m309.9 387v39.3" fill="none" stroke="#000" stroke-linecap="round" stroke-linejoin="round" stroke-width=".25"/><path d="m154.6 476.6v39.3" fill="none" stroke="#000" stroke-linecap="round" stroke-linejoin="round" stroke-width=".25"/><path d="m.3 388v39.3" fill="none" stroke="#000" stroke-linecap="round" stroke-linejoin="round" stroke-width=".25"/><path d="m154.6 476.8 155.2-89.6-154.2-89-155.2 89.6z" fill="url(#g)" stroke="#000" stroke-linecap="round" stroke-linejoin="round" stroke-width=".25"/><path d="m310.3 245.2-155.2-89.6-154.2 89.1v47.6l155.2 89.7 154.2-89z" fill="url(#i)" stroke="#444ff5" stroke-miterlimit="10" stroke-width=".75"/><path d="m156.1 334v47.8" fill="none" stroke="#444ff5" stroke-miterlimit="10" stroke-width=".75"/><path d="m156.1 334.2-155.2-89.5 154.2-89.1 155.2 89.6z" fill="url(#j)" stroke="#444ff5" stroke-miterlimit="10" stroke-width=".75"/><path d="m113.4 230.8 1.6-.9 19.3-1.7-8.2-4.7 1.6-.9 10.2 5.9-1.6.9-19.2 1.7 8.1 4.7-1.6.9z" fill="#fff"/><path d="m168.2 230.3c-2.6-1.5-5.6-2.4-8.7-2.7s-6.3-.1-9.2.6c-6.2 1.7-11.3 4.6-14.2 8.2-1.3 1.7-1.6 3.5-1.1 5.3s2.1 3.5 4.8 5c3.9 2.3 8.3 3.2 13 2.9s9.1-1.8 13.2-4.1c4.1-2.4 6.5-4.9 7.1-7.6.6-2.8-1-5.5-4.9-7.6zm-5 13.5c-1.9 1.1-4.1 2.1-6.6 2.8-2.3.6-4.9.9-7.4.7-2.7-.2-5.2-.9-7-2-1.5-.8-2.6-1.9-3.2-3-.5-1.1-.6-2.2-.2-3.2.4-1.1 1.1-2.1 2.1-3.1 2.1-2.1 5.1-3.8 8.7-5 1.7-.6 3.5-1 5.4-1.2s3.8-.2 5.6.1c2 .3 3.8 1 5.2 1.8 2 1.1 3.2 2.5 3.5 4.1.3 1.5-.2 3-1.3 4.3-1.2 1.3-2.8 2.6-4.8 3.7z" fill="#fff"/><path d="m184.5 260c.4-.8.4-1.7 0-2.6s-.9-1.7-1.5-2.5c-.6-.9-1.4-1.7-2.1-2.5s-1.2-1.6-1.7-2.4c-.4-.7-.6-1.5-.4-2.3s.8-1.5 1.8-2c1.6-.9 3.4-1.3 5.3-1.1s3.7.8 5.4 1.7c3.8 2.2 4.4 4.2 1.8 6h-.1l2.6 1.5h.1c4-2.7 3.2-5.7-2.2-8.9-2.4-1.4-5.1-2.2-8-2.4s-5.5.4-7.9 1.7c-1.2.7-2.1 1.5-2.5 2.4-.4.8-.4 1.7 0 2.6s.9 1.7 1.5 2.5c.6.9 1.4 1.7 2.1 2.5s1.3 1.6 1.8 2.4c.5.7.6 1.5.5 2.2-.2.7-.8 1.4-1.7 1.9-3.5 2-7.3 1.9-11.4-.5-4.1-2.3-4.5-4.7-1.5-7.1h.1l-2.7-1.6-.1.1c-4.5 3.3-3.8 6.7 2 10.1 2.7 1.5 5.4 2.4 8.2 2.7 2.8.2 5.5-.4 8.1-2 1.2-.7 2.1-1.6 2.5-2.4z" fill="#fff"/><path d="m.3 244.5v47.8" fill="none" stroke="#1a1a1a" stroke-linecap="round" stroke-linejoin="round" stroke-width=".6"/><path d="m309.9 245.5v47.8" fill="none" stroke="#1a1a1a" stroke-linecap="round" stroke-linejoin="round" stroke-width=".6"/><path d="m133.3 112.7-66.7-38.5-66.3 38.3v19.7l66.7 38.6 66.3-38.3z" fill="url(#k)" stroke="url(#m)" stroke-linecap="round" stroke-linejoin="round" stroke-width=".5"/><path d="m67 151-66.7-38.5 66.3-38.3 66.7 38.5z" fill="url(#n)" stroke="url(#o)" stroke-linecap="round" stroke-linejoin="round" stroke-width=".5"/><path d="m55.3 123.8-8-4.6 2.4-1.4c.7-.4 1.5-.7 2.4-.8s1.7-.1 2.6 0c.9.2 1.7.4 2.4.9l.4.2c.6.3 1.2.8 1.5 1.5.3.5.3 1 0 1.5-.3.6-.8 1.1-1.5 1.4zm-5.5-4.7 5.8 3.3.9-.5c.7-.4 1.1-.9 1-1.4s-.5-1-1.4-1.5l-.4-.3c-.8-.5-1.6-.8-2.5-.8-.8 0-1.6.1-2.3.6z" fill="url(#p)"/><path d="m66.3 115.3-3.1 1.8 1.2 1.4-1.5.8-4.9-6.3 1.2-.7 11 2.8-1.5.8zm-3.8 1 2.3-1.3-4.5-1.2z" fill="url(#q)"/><path d="m74.2 109.6c.9.5 1.4 1.1 1.6 1.6s-.2 1-.9 1.4-1.4.6-2.2.5l2.8 1.6-1.3.8-8.2-4.7 1.2-.7.7.3c-.1-.5.2-.9.9-1.3.8-.4 1.6-.6 2.5-.5 1 .1 2 .4 2.9 1zm-1.4.7c-.5-.3-1.1-.5-1.8-.6-.5-.1-1.1 0-1.5.3-.5.3-.7.7-.5 1.1l2.6 1.5c.6.1 1.3 0 1.9-.3.4-.2.6-.5.5-.9s-.5-.7-1.2-1.1z" fill="url(#r)"/><path d="m81.7 105.2c.9.5 1.4 1.1 1.6 1.6s-.2 1-.9 1.4-1.4.6-2.2.5l2.8 1.6-1.3.8-8.2-4.7 1.2-.7.7.3c-.1-.5.2-.9.9-1.3.8-.4 1.6-.6 2.5-.5 1 .2 2 .5 2.9 1zm-1.4.7c-.5-.3-1.1-.5-1.8-.6-.5-.1-1.1 0-1.5.3-.5.3-.7.7-.5 1.1l2.6 1.5c.6.1 1.3 0 1.9-.3.4-.2.6-.5.5-.9s-.5-.7-1.2-1.1z" fill="url(#s)"/><path d="m67 151v19.8" fill="none" stroke="url(#t)" stroke-linecap="round" stroke-linejoin="round" stroke-width=".5"/><path d="m133.3 112.7-66.7-38.5-66.3 38.3v19.7l66.7 38.6 66.3-38.3z" fill="url(#u)" opacity=".1"/><g stroke-linecap="round" stroke-linejoin="round"><path d="m66.9 206.9-.2 75.5" fill="none" stroke="url(#v)" stroke-dasharray="2 3" stroke-width=".5"/><path d="m66.9 170.9-.2 34" fill="none" stroke="url(#w)" stroke-dasharray="2 3" stroke-width=".5"/><path d="m133 133.9-.1 33" fill="none" stroke="url(#x)" stroke-dasharray="2 3" stroke-width=".5"/><path d="m.3 133.1v112.7" fill="none" stroke="url(#y)" stroke-dasharray="2 3" stroke-width=".5"/><path d="m133 168.7-.1 75.6" fill="none" stroke="url(#z)" stroke-dasharray="2 3" stroke-width=".5"/><path d="m309.9 38.8-66.8-38.6-66.2 38.3v19.8l66.7 38.5 66.3-38.3z" fill="url(#A)" stroke="url(#B)" stroke-width=".5"/><path d="m243.6 77.1-66.7-38.6 66.2-38.3 66.8 38.6z" fill="url(#C)" stroke="url(#D)" stroke-width=".5"/></g><path d="m231.8 49.9-8-4.6 2.4-1.4c.7-.4 1.5-.7 2.4-.8s1.7-.1 2.6 0c.9.2 1.7.4 2.4.9l.4.2c.6.3 1.2.8 1.5 1.4.3.5.3 1 0 1.5-.3.6-.8 1.1-1.5 1.4zm-5.4-4.8 5.8 3.3.9-.5c.7-.4 1.1-.9 1-1.4s-.5-1-1.4-1.5l-.4-.3c-.8-.5-1.6-.8-2.6-.8-.8 0-1.6.1-2.3.6z" fill="url(#E)"/><path d="m242.9 41.4-3.1 1.8 1.2 1.5-1.4.8-4.9-6.3 1.2-.7 11 2.8-1.5.8zm-3.9.9 2.3-1.3-4.5-1.2z" fill="url(#F)"/><path d="m250.8 35.6c.9.5 1.4 1.1 1.6 1.6.1.6-.2 1-.9 1.5-.7.4-1.4.6-2.2.5l2.8 1.6-1.3.8-8.2-4.7 1.2-.7.7.3c-.1-.5.2-.9.9-1.3.8-.4 1.6-.6 2.5-.5 1 0 1.9.4 2.9.9zm-1.5.7c-.5-.3-1.1-.5-1.8-.6-.5-.1-1.1 0-1.6.3s-.7.7-.5 1.1l2.6 1.5c.6.1 1.3 0 1.9-.3.4-.2.6-.5.5-.9 0-.3-.4-.7-1.1-1.1z" fill="url(#G)"/><path d="m258.3 31.3c.9.5 1.4 1.1 1.6 1.6.1.6-.1 1-.8 1.4s-1.4.6-2.2.5l2.8 1.6-1.3.8-8.3-4.7 1.2-.7.7.3c-.1-.5.2-.9.9-1.3.8-.4 1.6-.6 2.5-.5s1.9.4 2.9 1zm-1.5.7c-.5-.3-1.1-.5-1.8-.6-.5-.1-1.1 0-1.5.3-.5.3-.7.7-.5 1.1l2.6 1.5c.6.1 1.3 0 1.9-.3.4-.2.6-.5.5-.9-.1-.3-.5-.7-1.2-1.1z" fill="url(#H)"/><path d="m243.6 77.1v19.7" fill="none" stroke="url(#I)" stroke-linecap="round" stroke-linejoin="round" stroke-width=".5"/><path d="m309.9 38.8-66.8-38.6-66.2 38.3v19.8l66.7 38.5 66.3-38.3z" fill="url(#J)" opacity=".1"/><path d="m309.9 55.8v190" style="fill:none;stroke-width:.5;stroke-linecap:round;stroke-linejoin:round;stroke-dasharray:2 3;stroke:url(#K)"/><path d="m243.7 97v108.1" style="fill:none;stroke-width:.5;stroke-linecap:round;stroke-linejoin:round;stroke-dasharray:2 3;stroke:url(#L)"/><path d="m176.9 58.8v112.3" style="fill:none;stroke-width:.5;stroke-linecap:round;stroke-linejoin:round;stroke-dasharray:2 3;stroke:url(#M)"/><path d="m243.7 208.5v74.9" style="fill:none;stroke-width:.5;stroke-linecap:round;stroke-linejoin:round;stroke-dasharray:2 3;stroke:url(#N)"/><path d="m176.9 170.8v71.4" style="fill:none;stroke-width:.5;stroke-linecap:round;stroke-linejoin:round;stroke-dasharray:2 3;stroke:url(#O)"/></svg>