<svg enable-background="new 0 0 310.2 1163.5" viewBox="0 0 310.2 1163.5" xmlns="http://www.w3.org/2000/svg" xmlns:xlink="http://www.w3.org/1999/xlink"><linearGradient id="a"><stop offset="0" stop-color="#2d3438"/><stop offset="1" stop-color="#1a1a1a"/></linearGradient><linearGradient id="b" gradientTransform="matrix(1 0 0 -1 0 1610)" gradientUnits="userSpaceOnUse" x1=".3" x2="133.3" xlink:href="#a" y1="1374.2" y2="1374.2"/><linearGradient id="c"><stop offset="0" stop-color="#5c8ee4"/><stop offset="1" stop-color="#67eaec"/></linearGradient><linearGradient id="d" gradientTransform="matrix(1 0 0 -1 0 1610)" gradientUnits="userSpaceOnUse" x1=".05" x2="133.55" xlink:href="#c" y1="1374.2" y2="1374.2"/><linearGradient id="e" gradientTransform="matrix(1 0 0 -1 0 1610)" gradientUnits="userSpaceOnUse" x1="88.6" x2="221.6" xlink:href="#a" y1="1561.5" y2="1561.5"/><linearGradient id="f" gradientTransform="matrix(1 0 0 -1 0 1610)" gradientUnits="userSpaceOnUse" x1="88.35" x2="221.85" xlink:href="#c" y1="1561.5" y2="1561.5"/><linearGradient id="g" gradientTransform="matrix(1 0 0 -1 0 1610)" gradientUnits="userSpaceOnUse" x1="176.9" x2="309.9" xlink:href="#a" y1="1448.15" y2="1448.15"/><linearGradient id="h" gradientTransform="matrix(1 0 0 -1 0 1610)" gradientUnits="userSpaceOnUse" x1="176.65" x2="310.15" xlink:href="#c" y1="1448.15" y2="1448.15"/><linearGradient id="i" gradientUnits="userSpaceOnUse" x1="155.1" x2="155.1" y1="722.0834" y2="1077.7684"><stop offset="0" stop-color="#2d3438"/><stop offset="1" stop-color="#1a1a1a" stop-opacity="0"/></linearGradient><linearGradient id="j" gradientTransform="matrix(1 0 0 -1 0 1610)" gradientUnits="userSpaceOnUse" x1="38.9662" x2="271.2338" xlink:href="#a" y1="1049.0992" y2="915.0007"/><linearGradient id="k" gradientUnits="userSpaceOnUse" x1="154.925" x2="154.925" y1="543.9174" y2="1068.338"><stop offset="0" stop-color="#1b1b1b" stop-opacity=".7382"/><stop offset="1" stop-color="#2d3438" stop-opacity="0"/></linearGradient><linearGradient id="l"><stop offset="0" stop-color="#2e3d4a"/><stop offset="1" stop-color="#232329"/></linearGradient><linearGradient id="m" gradientTransform="matrix(-1 0 0 -1 1894.8198 1610)" gradientUnits="userSpaceOnUse" x1="1585.0198" x2="1894.4198" xlink:href="#l" y1="1089.55" y2="1089.55"/><linearGradient id="n" gradientTransform="matrix(-1 0 0 -1 1894.8198 1610)" gradientUnits="userSpaceOnUse" x1="1739.7198" x2="1739.7198" xlink:href="#l" y1="1019.9" y2="1198.5"/><linearGradient id="o"><stop offset="0" stop-color="#67eaec"/><stop offset="1" stop-color="#1bcce5"/></linearGradient><linearGradient id="p" gradientTransform="matrix(1 0 0 -1 0 1610)" gradientUnits="userSpaceOnUse" x1=".4" x2="309.8" xlink:href="#o" y1="1227.8" y2="1227.8"/><linearGradient id="q" gradientTransform="matrix(1 0 0 -1 0 1610)" gradientUnits="userSpaceOnUse" x1="309.8" x2=".4" xlink:href="#o" y1="1251.7" y2="1251.7"/><linearGradient id="r" gradientTransform="matrix(1 0 0 -1 0 1610)" gradientUnits="userSpaceOnUse" x1=".3" x2="133.3" xlink:href="#a" y1="1384.1" y2="1384.1"/><linearGradient id="s" gradientTransform="matrix(1 0 0 -1 0 1610)" gradientUnits="userSpaceOnUse" x1=".05" x2="133.55" xlink:href="#c" y1="1384.1" y2="1384.1"/><linearGradient id="t" gradientTransform="matrix(1 0 0 -1 0 1610)" gradientUnits="userSpaceOnUse" x1="66.77" x2="67.27" xlink:href="#c" y1="1335.8" y2="1335.8"/><linearGradient id="u" gradientTransform="matrix(1 0 0 -1 0 1610)" gradientUnits="userSpaceOnUse" x1="176.9" x2="309.9" xlink:href="#a" y1="1458" y2="1458"/><linearGradient id="v" gradientTransform="matrix(1 0 0 -1 0 1610)" gradientUnits="userSpaceOnUse" x1="176.65" x2="310.15" xlink:href="#c" y1="1458" y2="1458"/><linearGradient id="w" gradientTransform="matrix(1 0 0 -1 0 1610)" gradientUnits="userSpaceOnUse" x1="243.32" x2="243.82" xlink:href="#c" y1="1409.75" y2="1409.75"/><linearGradient id="x" gradientTransform="matrix(1 0 0 -1 0 1610)" gradientUnits="userSpaceOnUse" x1="88.6" x2="221.6" xlink:href="#a" y1="1571.35" y2="1571.35"/><linearGradient id="y" gradientTransform="matrix(1 0 0 -1 0 1610)" gradientUnits="userSpaceOnUse" x1="88.35" x2="221.85" xlink:href="#c" y1="1571.35" y2="1571.35"/><linearGradient id="z" gradientTransform="matrix(1 0 0 -1 0 1610)" gradientUnits="userSpaceOnUse" x1="155.04" x2="155.54" xlink:href="#c" y1="1523.05" y2="1523.05"/><linearGradient id="A" gradientTransform="matrix(1 0 0 -1 0 1610)" gradientUnits="userSpaceOnUse" x1="176.9" x2="309.9" xlink:href="#c" y1="1448.15" y2="1448.15"/><linearGradient id="B" gradientTransform="matrix(1 0 0 -1 0 1610)" gradientUnits="userSpaceOnUse" x1="88.6" x2="221.6" xlink:href="#c" y1="1561.5" y2="1561.5"/><linearGradient id="C" gradientTransform="matrix(1 0 0 -1 0 1610)" gradientUnits="userSpaceOnUse" x1=".3" x2="133.3" xlink:href="#c" y1="1374.2" y2="1374.2"/><path d="m88.6 58.8v248.9" style="fill:none;stroke:#4cc5ff;stroke-width:.5;stroke-linecap:round;stroke-linejoin:round;stroke-dasharray:2 3"/><path d="m133.3 226-66.7-38.5-66.3 38.3v19.7l66.7 38.6 66.3-38.3z" fill="url(#b)" stroke="url(#d)" stroke-linecap="round" stroke-linejoin="round" stroke-width=".5"/><path d="m221.6 38.8-66.7-38.6-66.3 38.3v19.8l66.7 38.5 66.3-38.3z" fill="url(#e)" stroke="url(#f)" stroke-linecap="round" stroke-linejoin="round" stroke-width=".5"/><path d="m221.6 58.8v248.9" style="fill:none;stroke:#4cc5ff;stroke-width:.5;stroke-linecap:round;stroke-linejoin:round;stroke-dasharray:2 3"/><path d="m309.9 152.1-66.8-38.5-66.2 38.2v19.8l66.7 38.5 66.3-38.3z" fill="url(#g)" stroke="url(#h)" stroke-linecap="round" stroke-linejoin="round" stroke-width=".5"/><path d="m309.8 628.2-155.2-89.6-154.2 89.1v446.3l155.2 89.5 154.2-89z" fill="url(#i)"/><path d="m.3 627.5v446.2" fill="none"/><path d="m155.6 717v446.3" fill="none"/><path d="m309.9 628.4v446.3" fill="none"/><path d="m155.6 717.2-155.2-89.5 154.2-89.1 155.2 89.6z" fill="url(#j)"/><path d="m309.6 628.1-155.2-89.6-154.2 89.1v446.3l155.2 89.5 154.2-89z" fill="url(#k)" opacity=".35"/><path d="m.4 501.1 155.2-89.6 154.2 89v39.3l-155.2 89.6-154.2-89z" fill="url(#m)" stroke="#000" stroke-linecap="round" stroke-linejoin="round" stroke-width=".25"/><path d="m309.9 500.3v39.3" fill="none" stroke="#000" stroke-linecap="round" stroke-linejoin="round" stroke-width=".25"/><path d="m154.6 589.9v39.3" fill="none" stroke="#000" stroke-linecap="round" stroke-linejoin="round" stroke-width=".25"/><path d="m.3 501.3v39.3" fill="none" stroke="#000" stroke-linecap="round" stroke-linejoin="round" stroke-width=".25"/><path d="m154.6 590.1 155.2-89.6-154.2-89-155.2 89.6z" fill="url(#n)" stroke="#000" stroke-linecap="round" stroke-linejoin="round" stroke-width=".25"/><path d="m309.8 358.6-155.2-89.6-154.2 89.1v47.7l155.2 89.6 154.2-89z" fill="url(#p)" stroke="#444ff5" stroke-miterlimit="10" stroke-width=".75"/><path d="m.3 357.8v47.8" fill="none" stroke="#1a1a1a" stroke-linecap="round" stroke-linejoin="round" stroke-width=".6"/><path d="m155.6 447.4v47.8" fill="none" stroke="#444ff5" stroke-miterlimit="10" stroke-width=".75"/><path d="m309.9 358.8v47.8" fill="none" stroke="#1a1a1a" stroke-linecap="round" stroke-linejoin="round" stroke-width=".6"/><path d="m155.6 447.6-155.2-89.5 154.2-89.1 155.2 89.6z" fill="url(#q)" stroke="#444ff5" stroke-miterlimit="10" stroke-width=".75"/><g stroke-width=".5"><path d="m155.1 97.2v248.9" fill="none" stroke="#4cc5ff" stroke-dasharray="2 3" stroke-linecap="round" stroke-linejoin="round"/><path d="m67 264.3-66.7-38.5 66.3-38.3 66.7 38.5z" fill="url(#r)" stroke="url(#s)" stroke-linecap="round" stroke-linejoin="round"/><path d="m67 264.3v19.8" fill="none" stroke="url(#t)" stroke-linecap="round" stroke-linejoin="round"/><path d="m66.9 320.1-.2 75.6" fill="none" stroke="#444ff5" stroke-dasharray="2 3" stroke-linecap="round" stroke-linejoin="round"/><path d="m66.9 284.2-.2 33.9" fill="none" stroke="#4cc5ff" stroke-dasharray="2 3" stroke-linecap="round" stroke-linejoin="round"/><path d="m133 247.2-.1 33" fill="none" stroke="#4cc5ff" stroke-dasharray="2 3" stroke-linecap="round" stroke-linejoin="round"/><path d="m.3 246.5v112.6" fill="none" stroke="#4cc5ff" stroke-dasharray="2 3" stroke-linecap="round" stroke-linejoin="round"/><path d="m133 282-.1 75.6" fill="none" stroke="#444ff5" stroke-dasharray="2 3" stroke-linecap="round" stroke-linejoin="round"/><path d="m243.6 190.4-66.7-38.6 66.2-38.2 66.8 38.5z" fill="url(#u)" stroke="url(#v)" stroke-linecap="round" stroke-linejoin="round"/></g><path d="m238.1 145.8c.3-.5.3-1 0-1.5-.2-.5-.7-.9-1.4-1.4l-2.4-1.4-8 4.6 2.4 1.3c.5.4 1.4.6 2.4.8.8.1 1.8.1 2.6 0 1-.2 1.9-.5 2.4-.9l.4-.2c.9-.3 1.4-.8 1.6-1.3zm-3.4.9c-.8.5-1.7.7-2.5.8-.9 0-1.6-.2-2.4-.6l-.9-.5 5.8-3.3 1 .6c.7.4 1.1.9 1 1.3-.1.5-.6 1-1.4 1.5z" fill="#4cc5ff"/><path d="m245.1 147.7-11 2.9 1.5.8 2.5-.7 3.1 1.8-1.2 1.4 1.5.8 4.9-6.4zm-5.6 2.6 4.5-1.2-2.2 2.6z" fill="#4cc5ff"/><path d="m252.8 155.4c.2-.5-.2-1-.9-1.5-.7-.4-1.5-.6-2.3-.5l.6-.4-1.2-.7-8.2 4.7 1.3.8 2.8-1.6c-.1.4.3.9.9 1.3.7.4 1.5.6 2.5.5s1.9-.4 2.8-.9l.1-.1c.9-.4 1.5-1 1.6-1.6zm-4.8 1.6c-.6.1-1.1 0-1.5-.3-.6-.3-.7-.7-.5-1.1l2.6-1.5c.7-.1 1.3 0 1.9.3.5.3.6.6.5.9-.1.4-.5.7-1.1 1-.7.4-1.3.6-1.9.7z" fill="#4cc5ff"/><path d="m258.7 161.4c.9-.5 1.5-1.1 1.6-1.7.2-.5-.2-1-.9-1.5-.7-.4-1.5-.6-2.3-.5l.6-.4-1.2-.7-8.2 4.7 1.3.8 2.8-1.6c-.1.4.3.9.9 1.3.7.4 1.5.6 2.5.5 1 0 1.9-.3 2.9-.9zm-3.2-.1c-.6.1-1.1 0-1.5-.3-.6-.3-.7-.7-.5-1.1l2.6-1.5c.7-.1 1.3 0 1.9.3.5.3.6.6.5.9-.1.4-.5.7-1.1 1-.7.4-1.3.6-1.9.7z" fill="#4cc5ff"/><path d="m243.6 190.4v19.7" fill="none" stroke="url(#w)" stroke-linecap="round" stroke-linejoin="round" stroke-width=".5"/><path d="m309.9 169.1v190" style="fill:none;stroke:#4cc5ff;stroke-width:.5;stroke-linecap:round;stroke-linejoin:round;stroke-dasharray:2 3"/><path d="m243.7 210.3v108.1" style="fill:none;stroke:#4cc5ff;stroke-width:.5;stroke-linecap:round;stroke-linejoin:round;stroke-dasharray:2 3"/><path d="m176.9 172.1v112.3" style="fill:none;stroke:#4cc5ff;stroke-width:.5;stroke-linecap:round;stroke-linejoin:round;stroke-dasharray:2 3"/><path d="m243.7 321.8v75" style="fill:none;stroke:#444ff5;stroke-width:.5;stroke-linecap:round;stroke-linejoin:round;stroke-dasharray:2 3"/><path d="m176.9 284.1v71.4" style="fill:none;stroke:#444ff5;stroke-width:.5;stroke-linecap:round;stroke-linejoin:round;stroke-dasharray:2 3"/><path d="m155.3 77.1-66.7-38.6 66.3-38.3 66.7 38.6z" fill="url(#x)" stroke="url(#y)" stroke-linecap="round" stroke-linejoin="round" stroke-width=".5"/><path d="m155.3 77.1v19.7" fill="none" stroke="url(#z)" stroke-linecap="round" stroke-linejoin="round" stroke-width=".5"/><path d="m309.9 152.1-66.8-38.5-66.2 38.2v19.8l66.7 38.5 66.3-38.3z" fill="url(#A)" opacity=".1"/><path d="m149.9 32.5c.3-.5.3-1 0-1.5-.2-.5-.7-.9-1.4-1.4l-2.4-1.4-8 4.6 2.4 1.3c.5.4 1.4.6 2.4.8.8.1 1.8.1 2.6 0 1-.2 1.9-.5 2.4-.9l.4-.2c.8-.3 1.3-.8 1.6-1.3zm-3.5.9c-.8.5-1.7.7-2.5.8-.9 0-1.6-.2-2.4-.6l-.9-.5 5.8-3.3 1 .6c.7.4 1.1.9 1 1.3-.1.5-.6 1-1.4 1.5z" fill="#4cc5ff"/><path d="m156.8 34.4-11 2.9 1.5.8 2.5-.7 3.1 1.8-1.2 1.4 1.5.8 4.9-6.4zm-5.5 2.6 4.5-1.2-2.2 2.6z" fill="#4cc5ff"/><path d="m164.5 42.1c.2-.5-.2-1-.9-1.5-.7-.4-1.5-.6-2.3-.5l.6-.4-1.2-.7-8.2 4.7 1.3.8 2.8-1.6c-.1.4.3.9.9 1.3.7.4 1.5.6 2.5.5s1.9-.4 2.8-.9l.1-.1c.9-.4 1.5-1 1.6-1.6zm-4.8 1.6c-.6.1-1.1 0-1.5-.3-.6-.3-.7-.7-.5-1.1l2.6-1.5c.7-.1 1.3 0 1.9.3.5.3.6.6.5.9-.1.4-.5.7-1.1 1-.7.4-1.3.6-1.9.7z" fill="#4cc5ff"/><path d="m170.4 48.1c.9-.5 1.5-1.1 1.6-1.7.2-.5-.2-1-.9-1.5-.7-.4-1.5-.6-2.3-.5l.6-.4-1.2-.7-8.2 4.7 1.3.8 2.8-1.6c-.1.4.3.9.9 1.3.7.4 1.5.6 2.5.5s1.9-.3 2.9-.9zm-3.2-.1c-.6.1-1.1 0-1.5-.3-.6-.3-.7-.7-.5-1.1l2.6-1.5c.7-.1 1.3 0 1.9.3.5.3.6.6.5.9-.1.4-.5.7-1.1 1-.7.4-1.3.6-1.9.7z" fill="#4cc5ff"/><path d="m221.6 38.8-66.7-38.6-66.3 38.3v19.8l66.7 38.5 66.3-38.3z" fill="url(#B)" opacity=".1"/><path d="m61.6 219.7c.3-.5.3-1 0-1.5-.2-.5-.7-.9-1.4-1.4l-2.4-1.4-8 4.6 2.4 1.3c.5.4 1.4.6 2.4.8.8.1 1.8.1 2.6 0 1-.2 1.9-.5 2.4-.9l.4-.2c.8-.3 1.3-.8 1.6-1.3zm-3.5.9c-.8.5-1.7.7-2.5.8-.9 0-1.6-.2-2.4-.6l-.9-.5 5.8-3.3 1 .6c.7.4 1.1.9 1 1.3-.1.5-.6 1-1.4 1.5z" fill="#4cc5ff"/><path d="m68.5 221.7-11 2.9 1.5.8 2.5-.7 3.1 1.8-1.2 1.4 1.5.8 4.9-6.4zm-5.5 2.6 4.5-1.2-2.2 2.6z" fill="#4cc5ff"/><path d="m76.3 229.4c.2-.5-.2-1-.9-1.5-.7-.4-1.5-.6-2.3-.5l.6-.4-1.2-.7-8.2 4.7 1.3.8 2.8-1.6c-.1.4.3.9.9 1.3.7.4 1.5.6 2.5.5s1.9-.4 2.8-.9l.1-.1c.8-.5 1.4-1.1 1.6-1.6zm-4.9 1.5c-.6.1-1.1 0-1.5-.3-.6-.3-.7-.7-.5-1.1l2.6-1.5c.7-.1 1.3 0 1.9.3.5.3.6.6.5.9-.1.4-.5.7-1.1 1-.6.4-1.3.7-1.9.7z" fill="#4cc5ff"/><path d="m82.1 235.3c.9-.5 1.5-1.1 1.6-1.7.2-.5-.2-1-.9-1.5-.7-.4-1.5-.6-2.3-.5l.6-.4-1.2-.7-8.2 4.7 1.3.8 2.8-1.6c-.1.4.3.9.9 1.3.7.4 1.5.6 2.5.5 1 0 2-.3 2.9-.9zm-3.2-.1c-.6.1-1.1 0-1.5-.3-.6-.3-.7-.7-.5-1.1l2.6-1.5c.7-.1 1.3 0 1.9.3.5.3.6.6.5.9-.1.4-.5.7-1.1 1-.6.4-1.3.7-1.9.7z" fill="#4cc5ff"/><path d="m133.3 226-66.7-38.5-66.3 38.3v19.7l66.7 38.6 66.3-38.3z" fill="url(#C)" opacity=".1"/><path d="m112.9 344.2 1.6-.9 19.3-1.7-8.2-4.7 1.6-.9 10.2 5.9-1.6.9-19.2 1.7 8.1 4.7-1.6.9z" fill="#fff"/><path d="m167.7 343.7c-2.6-1.5-5.6-2.4-8.7-2.7s-6.3-.1-9.2.6c-6.2 1.7-11.3 4.6-14.2 8.2-1.3 1.7-1.6 3.5-1.1 5.3s2.1 3.5 4.8 5c3.9 2.3 8.3 3.2 13 2.9s9.1-1.8 13.2-4.1c4.1-2.4 6.5-4.9 7.1-7.6.6-2.8-1-5.4-4.9-7.6zm-5 13.5c-1.9 1.1-4.1 2.1-6.6 2.8-2.3.6-4.9.9-7.4.7-2.7-.2-5.2-.9-7-2-1.5-.8-2.6-1.9-3.2-3-.5-1.1-.6-2.2-.2-3.2.4-1.1 1.1-2.1 2.1-3.1 2.1-2.1 5.1-3.8 8.7-5 1.7-.6 3.5-1 5.4-1.2s3.8-.2 5.6.1c2 .3 3.8 1 5.2 1.8 2 1.1 3.2 2.5 3.5 4.1.3 1.5-.2 3-1.3 4.3-1.2 1.4-2.8 2.6-4.8 3.7z" fill="#fff"/><path d="m184 373.4c.4-.8.4-1.7 0-2.6s-.9-1.7-1.5-2.5c-.6-.9-1.4-1.7-2.1-2.5s-1.2-1.6-1.7-2.4c-.4-.7-.6-1.5-.4-2.3s.8-1.5 1.8-2c1.6-.9 3.4-1.3 5.3-1.1s3.7.8 5.4 1.7c3.8 2.2 4.4 4.2 1.8 6h-.1l2.6 1.5h.1c4-2.7 3.2-5.7-2.2-8.9-2.4-1.4-5.1-2.2-8-2.4s-5.5.4-7.9 1.7c-1.2.7-2.1 1.5-2.5 2.4-.4.8-.4 1.7 0 2.6s.9 1.7 1.5 2.5c.6.9 1.4 1.7 2.1 2.5s1.3 1.6 1.8 2.4c.5.7.6 1.5.5 2.2-.2.7-.8 1.4-1.7 1.9-3.5 2-7.3 1.9-11.4-.5-4.1-2.3-4.5-4.7-1.5-7.1h.1l-2.7-1.6-.1.1c-4.5 3.3-3.8 6.7 2 10.1 2.7 1.5 5.4 2.4 8.2 2.7 2.8.2 5.5-.4 8.1-2 1.2-.7 2.1-1.5 2.5-2.4z" fill="#fff"/></svg>